<svg viewBox="0 0 1159.19 864.13" xmlns="http://www.w3.org/2000/svg" xmlns:xlink="http://www.w3.org/1999/xlink"><linearGradient id="a" gradientTransform="matrix(1 0 0 -1 0 807.79)" gradientUnits="userSpaceOnUse" x1="289.45" x2="289.45" y1="164.78" y2="192.38"><stop offset="0" stop-color="#808080" stop-opacity=".25"/><stop offset=".54" stop-color="#808080" stop-opacity=".12"/><stop offset="1" stop-color="#808080" stop-opacity=".1"/></linearGradient><linearGradient id="b" x1="997.46" x2="997.46" xlink:href="#a" y1="312.36" y2="335.4"/><linearGradient id="c" gradientTransform="matrix(1 0 0 -1 -32.41 764.9)" x1="658.6" x2="658.6" xlink:href="#a" y1="595.32" y2="663.98"/><linearGradient id="d" gradientTransform="matrix(1 0 0 -1 -32.41 764.9)" x1="248.43" x2="248.43" xlink:href="#a" y1="266.4" y2="314.31"/><linearGradient id="e" gradientTransform="matrix(.98 .17 .17 -.98 -72.13 565.65)" gradientUnits="userSpaceOnUse" x1="1092.6" x2="1092.6" y1="-.96" y2="-105.98"><stop offset="0" stop-color="#e0e0e0"/><stop offset=".31" stop-color="#fccc63"/><stop offset=".77" stop-color="#f55f44"/></linearGradient><linearGradient id="f" x1="1044.93" x2="1044.93" xlink:href="#e" y1="-.97" y2="-105.98"/><linearGradient id="g" x1="997.25" x2="997.25" xlink:href="#e" y1="-.97" y2="-105.98"/><linearGradient id="h" x1="949.57" x2="949.57" xlink:href="#e" y1="-.96" y2="-105.98"/><path d="m1003 634.25a139.36 139.36 0 0 1 -27.7-.37c-101.12-11.18-238.82-8-351.07 61.55-155.23 96.17-398.54 13.84-505.86-30.95-82-34.21-124.57-118-99-196.65.36-1.11.73-2.22 1.12-3.33 16.09-46.74 47.85-83.32 87.18-102.71 34.28-16.9 84.33-52.19 106.6-120 9.2-28 21.82-54.34 38.21-77.3 43.89-61.49 135.77-153.06 293.79-152.49a254.8 254.8 0 0 1 81.41 13.78c57.73 19.67 109.87 59.66 149.63 115.1 25.37 35.36 63.39 68.23 117.82 70.91 75.54 3.74 147.63 38.91 201.71 101.5 1.56 1.8 3.1 3.61 4.64 5.44 96.29 114.71 29.41 304.34-98.48 315.52z" fill="#c7aeec"/><path d="m444.78 748.11c-127.72 0-261.26-47.77-329.49-76.24-41.47-17.31-74.82-47.65-93.9-85.44-19.21-38.07-22.63-81.06-9.63-121.07.38-1.17.77-2.34 1.19-3.51 16.4-47.65 49.64-86.75 91.18-107.23 35.2-17.36 81.56-51.45 102.54-115.32 9.86-30 23.08-56.73 39.3-79.46 20.32-28.46 55.17-69.14 105.87-101.33 56.96-36.17 121.88-54.51 192.97-54.51h1.49a262 262 0 0 1 84 14.22c59.65 20.32 112.75 61.13 153.53 118 30.64 42.7 68.23 65.44 111.72 67.58 79 3.91 152.65 40.94 207.37 104.26q2.36 2.73 4.7 5.52c25.61 30.5 41.57 68.11 46.18 108.77a225.32 225.32 0 0 1 -15.73 111.29c-26 62.91-76.28 103.51-134.36 108.58-4.21.36-8.47.55-12.69.55a148.89 148.89 0 0 1 -16.61-.94 782.77 782.77 0 0 0 -85.55-4.83c-102.93 0-190.55 22-260.42 65.24-49.15 30.44-110.94 45.87-183.66 45.87z" fill="none" stroke="#222" stroke-miterlimit="10" stroke-width="8"/><path d="m1003 634.25a139.36 139.36 0 0 1 -27.7-.37c-101.12-11.18-238.82-8-351.07 61.55-155.23 96.17-398.54 13.84-505.86-30.95-82-34.21-124.57-118-99-196.65.36-1.11.73-2.22 1.12-3.33 16.09-46.74 47.85-83.32 87.18-102.71 34.28-16.9 84.33-52.19 106.6-120 9.2-28 21.82-54.34 38.21-77.3 43.89-61.49 135.77-153.06 293.79-152.49a254.8 254.8 0 0 1 81.41 13.78c57.73 19.67 109.87 59.66 149.63 115.1 25.37 35.36 63.39 68.23 117.82 70.91 75.54 3.74 147.63 38.91 201.71 101.5 1.56 1.8 3.1 3.61 4.64 5.44 96.29 114.71 29.41 304.34-98.48 315.52z" fill="#62c"/><path d="m444.94 744.14a617.43 617.43 0 0 1 -92.21-7.37c-92.71-14-179.46-45-235.9-68.6-40.59-16.93-73.22-46.6-91.83-83.55-18.73-37.11-22.07-79-9.39-118 .37-1.14.75-2.28 1.15-3.42 16.07-46.69 48.58-85 89.18-105 35.89-17.69 83.16-52.46 104.57-117.66 9.73-29.61 22.77-56 38.76-78.37 20.18-28.28 54.82-68.69 105.21-100.58 56.16-35.59 120.21-53.59 190.33-53.59h1.48a258.26 258.26 0 0 1 82.71 14c58.86 20.06 111.28 60.36 151.58 116.55 31.39 43.75 70 67 114.77 69.25 77.91 3.85 150.55 40.39 204.54 102.88 1.57 1.81 3.12 3.63 4.67 5.48 25.09 29.89 40.74 66.76 45.26 106.64a221.37 221.37 0 0 1 -15.44 109.31c-25.48 61.51-74.45 101.18-131 106.13a145.05 145.05 0 0 1 -28.49-.38c-96.89-10.71-235.89-8.86-348.56 60.97-48.69 30.17-109.46 45.31-181.39 45.31zm99.87-728.14c-68.59 0-131.19 17.61-186.09 52.35-27.21 17.22-67.16 48.28-103 98.47-15.52 21.73-28.19 47.38-37.67 76.22-22.28 67.83-71.37 104-108.63 122.34-38.73 19.09-69.77 55.7-85.17 100.42-.38 1.11-.74 2.19-1.09 3.27-12 37-8.85 76.73 8.92 112s49 63.57 87.81 79.77c56 23.38 142.11 54.17 234 68.07 111.37 16.79 201.6 4.4 268.23-36.91 114.58-71 255.54-73 353.61-62.12a136.74 136.74 0 0 0 26.91.36c53.54-4.68 100-42.52 124.33-101.22a213.37 213.37 0 0 0 14.88-105.35c-4.34-38.31-19.36-73.72-43.43-102.4-1.53-1.81-3.05-3.6-4.6-5.39-52.55-60.82-123.18-96.37-198.89-100.12-47.32-2.33-88-26.75-120.87-72.58-39.32-54.8-90.38-94.09-147.67-113.61a250.09 250.09 0 0 0 -80.14-13.57z" fill="#ab86e3"/><circle cx="289.45" cy="629.2" fill="url(#a)" opacity=".7" r="13.8"/><circle cx="289.45" cy="629.2" opacity=".2" r="13.18"/><circle cx="215.1" cy="360.03" fill="#fff" r="5.1"/><circle cx="589.1" cy="646.03" fill="#fff" r="5.1"/><circle cx="364.1" cy="682.03" fill="#fff" r="2.85"/><circle cx="995.1" cy="544.03" fill="#fff" r="2.85"/><circle cx="1085.55" cy="395.43" fill="#fff" r="2.85"/><circle cx="305.1" cy="193.03" fill="#fff" r="5.1"/><circle cx="99.93" cy="619.29" fill="#fff" r="5.1"/><circle cx="533.77" cy="150.01" fill="#fff" r="5.1"/><circle cx="730.11" cy="615.46" fill="#fff" r="5.1"/><path d="m164.99 538.11h-5v-5h-2v5h-4v2h4v5h2v-5h5z" fill="#fff"/><path d="m240.99 585.11h-5v-5h-2v5h-5v2h5v5h2v-5h5z" fill="#fff"/><path d="m441.99 628.11h-5v-5h-2v5h-4v2h4v5h2v-5h5z" fill="#fff"/><path d="m668.99 76.11h-2v-2h-1v2h-2v1h2v2h1v-2h2z" fill="#fff"/><path d="m963.99 266.11h-2v-2h-1v2h-2v1h2v2h1v-2h2z" fill="#fff"/><path d="m81.99 468.11h-2v-2h-1v2h-2v1h2v2h1v-2h2z" fill="#fff"/><path d="m166.99 638.11h-2v-2h-1v2h-2v1h2v2h1v-2h2z" fill="#fff"/><path d="m419.99 71.11h-2v-2h-1v2h-2v1h2v2h1v-2h2z" fill="#fff"/><path d="m465.99 204.11h-2v-2h-1v2h-2v1h2v2h1v-2h2z" fill="#fff"/><circle cx="997.46" cy="483.9" fill="url(#b)" opacity=".7" r="11.52"/><circle cx="997.46" cy="483.9" opacity=".2" r="10.67"/><circle cx="788.87" cy="576.65" opacity=".2" r="11.93"/><path d="m653.57 114.51a34.55 34.55 0 0 0 -10.22-9 34.33 34.33 0 1 0 -17.17 64.07 19.5 19.5 0 0 0 2.17-.08 34.32 34.32 0 0 0 25.23-54.93z" fill="url(#c)"/><path d="m658.62 135.19a32.45 32.45 0 0 1 -30.4 32.38c-.67 0-1.36.07-2.05.07a32.46 32.46 0 1 1 16.23-60.56 32.58 32.58 0 0 1 9.66 8.56 32.3 32.3 0 0 1 6.56 19.55z" opacity=".2"/><path d="m618.18 114.6a33.84 33.84 0 0 0 -4.84 2.55 7.59 7.59 0 0 0 -2.59 2.32 3 3 0 0 0 -.06 3.31c.79 1.08 2.31 1.24 3.65 1.32a9.4 9.4 0 0 0 4.18-.42 9.08 9.08 0 0 0 2.44-1.77l2.79-2.53c1-.88 2-2.09 1.61-3.33a3 3 0 0 0 -2.37-1.6 9.91 9.91 0 0 0 -7 1.23" opacity=".1"/><circle cx="606.53" cy="148" opacity=".1" r="1.71"/><circle cx="641.25" cy="137.18" opacity=".1" r="6.26"/><path d="m652.12 115.64a8.54 8.54 0 1 1 -9.67-8.56 32.62 32.62 0 0 1 9.67 8.56z" opacity=".1"/><path d="m652.7 153.87a32.36 32.36 0 0 1 -24.48 13.7c0-.45-.06-.9-.06-1.36a15.38 15.38 0 0 1 24.54-12.34z" opacity=".1"/><path d="m235.28 460.11a24 24 0 0 0 -7.14-6.32 24 24 0 1 0 -12 44.7c.51 0 1 0 1.52-.05a24 24 0 0 0 17.6-38.33z" fill="url(#d)"/><path d="m238.8 474.52a22.63 22.63 0 0 1 -21.21 22.59h-.91c-11.8 0-22-8.83-23.06-20.58a22.64 22.64 0 0 1 33.86-21.67 22.64 22.64 0 0 1 6.74 6 22.54 22.54 0 0 1 4.58 13.66z" opacity=".2"/><path d="m210.58 460a24 24 0 0 0 -3.37 1.77 5.61 5.61 0 0 0 -1.81 1.62 2.15 2.15 0 0 0 0 2.31 3.24 3.24 0 0 0 2.54.92 6.42 6.42 0 0 0 2.92-.29 6.19 6.19 0 0 0 1.71-1.24l1.94-1.76c.68-.62 1.42-1.46 1.12-2.32a2 2 0 0 0 -1.65-1.12 6.87 6.87 0 0 0 -4.87.86" opacity=".1"/><circle cx="202.45" cy="483.26" opacity=".1" r="1.19"/><circle cx="226.68" cy="475.72" opacity=".1" r="4.37"/><path d="m234.23 460.69a6 6 0 1 1 -6.75-6 22.68 22.68 0 0 1 6.75 6z" opacity=".1"/><path d="m235.07 487.36a22.61 22.61 0 0 1 -17.07 9.56v-.73a10.9 10.9 0 0 1 5.9-9.85 10.74 10.74 0 0 1 11.22 1z" opacity=".1"/><path d="m849.68 485.31 21.8 11.6-17.02 19.04" fill="none"/><g fill="#fff"><circle cx="999.43" cy="338.41" r="1.84"/><path d="m330.99 169.11h-2v-2h-1v2h-2v1h2v2h1v-2h2z"/><path d="m680.99 180.11h-2v-3h-1v2h-2v1h2v2h1v-3h2z"/><path d="m550.99 93.11h-2v-2h-1v1h-2v1h2v2h1v-3h2z"/><path d="m1119.99 420.11h-2v-2h-1v2h-2v1h2v2h1v-2h2z"/><path d="m443.99 160.11h-5v-5h-2v5h-5v1h5v5h2v-4h5z"/><path d="m1072.99 474.11h-5v-5h-2v4h-5v2h5v5h2v-5h5z"/><path d="m902.99 271.11h-5v-5h-2v5h-4v1h4v5h2v-4h5z"/><path d="m839.99 464.11h-5v-4h-2v4h-5v2h5v5h2v-5h5z"/><path d="m982.99 439.11h-2v-2h-1v2h-2v1h2v2h1v-2h2z"/><circle cx="1078.89" cy="559.83" r="2.85"/><path d="m888.99 350.11h-3v-2h1v2h-2v1h1v2h1v-2h2z"/><path d="m818.99 219.11h-2v-2h-1v2h-2v1h2v2h1v-2h2z"/><path d="m158.99 422.11h-2v-2h-1v2h-2v1h2v2h1v-2h2z"/><circle cx="1104.32" cy="454.55" r="5.1"/><path d="m912.99 572.11h-3v-2h1v2h-2v1h1v2h1v-2h2z"/><path d="m312.35 316.09-14.11.74-2.5-47.74 14.11-.74z"/><path d="m352 279.42 12-.63 5.78 20.82h.14l4.18-21.34 13.23-.69-9 35.07-13.57.71-6-19.73h-.13l-4 20.26-13.57.71-12.66-33.95 13.57-.71 6.32 20.79h.2z"/><path d="m427.29 310.07-12.83.67c-.15-1.11-.25-2-.31-2.66s-.15-1.36-.15-2.08a9.37 9.37 0 0 1 -3.9 4.37 14.24 14.24 0 0 1 -6.51 1.75q-5.76.3-9.17-2.27a9.25 9.25 0 0 1 -3.67-7.32 8.85 8.85 0 0 1 2.86-7.46q3.11-2.77 9.76-3.8l9-1.27-.06-1.27a3.72 3.72 0 0 0 -1.15-2.69 4.56 4.56 0 0 0 -5.65.26 3.84 3.84 0 0 0 -1 2.64l-13 .68a12.85 12.85 0 0 1 4.61-9.87q4.41-3.67 12.09-4.08 8.3-.44 12.71 3.15t4.79 11.18l.47 9.16q.18 3.35.44 5.81c.18 1.62.38 3.33.67 5.1zm-23.29-9.31a2.93 2.93 0 0 0 1 2.2 3.56 3.56 0 0 0 2.55.7 5.49 5.49 0 0 0 3.87-1.68 5.19 5.19 0 0 0 1.33-4l-.07-1.27-4.71.85a6.24 6.24 0 0 0 -3.13 1.1 2.44 2.44 0 0 0 -.84 2.1z"/><path d="m432.57 275.19 13.51-.7.26 4.94a10.42 10.42 0 0 1 4-4.46 12.49 12.49 0 0 1 6.1-1.83q6.09-.31 9.72 3t3.95 9.55l1.16 22.07-13.64.71-1-18.72a7.53 7.53 0 0 0 -1.42-4.55 4.13 4.13 0 0 0 -3.59-1.36 4.25 4.25 0 0 0 -3.52 1.9 8.06 8.06 0 0 0 -1 5l.9 18.26-13.64.72z"/><path d="m496.37 296.26c.71 0 1.37-.1 2-.17a16.1 16.1 0 0 0 1.89-.37l.52 10a42.2 42.2 0 0 1 -4.26 1.06 29.16 29.16 0 0 1 -3.9.44c-4.42.24-7.67-.47-9.77-2.1s-3.25-4.34-3.44-8.13l-.77-14.71-4.35.22-.5-9.43 4.35-.22-.44-8.43 13.44-.7.44 8.42 6.82-.35.5 9.42-6.89.36.61 11.57a3.47 3.47 0 0 0 .93 2.54 4.06 4.06 0 0 0 2.82.58z"/><path d="m538.1 294.07c.71 0 1.37-.09 2-.17a16.1 16.1 0 0 0 1.89-.37l.52 10c-1.67.49-3.1.84-4.27 1.06a30.48 30.48 0 0 1 -3.9.44q-6.62.35-9.76-2.11t-3.45-8.13l-.77-14.71-4.35.23-.49-9.43 4.35-.23-.44-8.43 13.44-.7.44 8.43 6.82-.36.49 9.43-6.89.36.61 11.57a3.47 3.47 0 0 0 .94 2.53 4.06 4.06 0 0 0 2.82.59z"/><path d="m564.13 267.49q8.76-.45 14.23 4.15t5.91 12.9q.42 8.29-4.53 13.45t-13.74 5.61q-8.76.47-14.23-4.15t-5.91-12.9q-.43-8.28 4.53-13.44t13.74-5.62zm.5 9.57a4.56 4.56 0 0 0 -4 2.35 11.91 11.91 0 0 0 -1 6.43 12.05 12.05 0 0 0 1.7 6.28 5 5 0 0 0 8.23-.43 15.39 15.39 0 0 0 -.67-12.71 4.54 4.54 0 0 0 -4.26-1.92z"/><path d="m628.14 300.35a12.68 12.68 0 0 1 -6.2-1.19 9.26 9.26 0 0 1 -4.25-3.83l.24 4.75-13.5.71-2.58-49.22 13.64-.71 1 19.45a9.38 9.38 0 0 1 3.77-4.25 12.25 12.25 0 0 1 6-1.82 13.32 13.32 0 0 1 11.09 4.41q4.33 4.77 4.77 12.86t-3.4 13.29a13.33 13.33 0 0 1 -10.58 5.55zm-5.94-26.35a4.92 4.92 0 0 0 -4.07 2.22 9.14 9.14 0 0 0 -1.21 5.7l.09 1.74a9.14 9.14 0 0 0 1.8 5.54 5.37 5.37 0 0 0 8.48-.62 14.06 14.06 0 0 0 -.66-12.63 4.93 4.93 0 0 0 -4.43-1.95z"/><path d="m670.21 285.54 12.5-.66a14 14 0 0 1 -5.3 9.5 19.85 19.85 0 0 1 -11.69 4q-8.36.44-13.9-4.27t-6-12.86q-.44-8.08 4.59-13.32t13.39-5.66q8.16-.43 13.23 4.23t5.51 12.5l.17 3.21-23.71 1.23a7.31 7.31 0 0 0 2.1 4.28 5.48 5.48 0 0 0 4.09 1.23 6.46 6.46 0 0 0 3.3-1 4 4 0 0 0 1.72-2.41zm-5.9-14a5.34 5.34 0 0 0 -3.74 1.57 6.92 6.92 0 0 0 -1.73 4.08l11-.58a5.24 5.24 0 0 0 -1.67-3.73 5 5 0 0 0 -3.86-1.38z"/><path d="m717.92 259.43q8.76-.45 14.23 4.15t5.91 12.9q.44 8.29-4.53 13.45t-13.71 5.61q-8.76.46-14.24-4.15t-5.9-12.9q-.43-8.28 4.52-13.44t13.72-5.62zm.5 9.57a4.57 4.57 0 0 0 -4 2.35 15.5 15.5 0 0 0 .67 12.71 5 5 0 0 0 8.22-.43 15.44 15.44 0 0 0 -.66-12.71 4.56 4.56 0 0 0 -4.23-1.92z"/><path d="m743 258.92 13.51-.7.26 4.94a10.34 10.34 0 0 1 4-4.46 12.53 12.53 0 0 1 6.11-1.83q6.09-.31 9.71 3t4 9.55l1.15 22.07-13.64.71-1-18.72a7.6 7.6 0 0 0 -1.41-4.55 4.14 4.14 0 0 0 -3.59-1.36 4.21 4.21 0 0 0 -3.52 1.9 8.12 8.12 0 0 0 -1 5l1 18.25-13.64.72z"/><path d="m810.63 278.18 12.51-.66a14 14 0 0 1 -5.31 9.5 19.85 19.85 0 0 1 -11.69 4q-8.35.44-13.9-4.27t-6-12.86q-.42-8.08 4.6-13.32t13.38-5.66q8.16-.42 13.23 4.24c3.38 3.1 5.21 7.27 5.48 12.48l.17 3.21-23.67 1.24a7.31 7.31 0 0 0 2.1 4.28 5.48 5.48 0 0 0 4.09 1.23 6.43 6.43 0 0 0 3.3-1 4 4 0 0 0 1.71-2.41zm-5.9-14a5.34 5.34 0 0 0 -3.74 1.57 6.92 6.92 0 0 0 -1.73 4.08l11-.58a5.29 5.29 0 0 0 -1.68-3.73 5 5 0 0 0 -3.85-1.38z"/><path d="m317.58 360.88q8.76-.47 14.23 4.15t5.91 12.9q.43 8.28-4.53 13.44t-13.72 5.63q-8.76.45-14.23-4.15t-5.9-12.9q-.43-8.29 4.52-13.45t13.72-5.62zm.5 9.56a4.57 4.57 0 0 0 -4 2.36c-.84 1.47-1.18 3.61-1 6.42a11.92 11.92 0 0 0 1.71 6.28 5 5 0 0 0 8.22-.43 11.87 11.87 0 0 0 1-6.42 12.06 12.06 0 0 0 -1.7-6.29 4.58 4.58 0 0 0 -4.23-1.92z"/><path d="m345.58 394.81-1.32-25.07-4.35.23-.49-9.43 4.35-.23-.12-2.27q-.33-6.29 2.88-9.68t9.76-3.73c1.69-.08 3-.12 4-.11s2 .07 2.92.15l.53 10c-.77 0-1.36-.07-1.78-.07s-.89 0-1.38 0a3.68 3.68 0 0 0 -2.63.94 3.47 3.47 0 0 0 -.67 2.58l.08 1.48 6.42-.34.49 9.43-6.42.33 1.32 25.08z"/><path d="m401.28 381.7c.71 0 1.37-.09 2-.17a16 16 0 0 0 1.89-.36l.52 10c-1.67.49-3.1.84-4.27 1.06a28.79 28.79 0 0 1 -3.9.44q-6.62.35-9.76-2.1t-3.45-8.14l-.77-14.71-4.34.23-.5-9.43 4.35-.23-.44-8.42 13.44-.71.44 8.43 6.82-.36.49 9.43-6.88.36.6 11.57a3.49 3.49 0 0 0 .94 2.53 4 4 0 0 0 2.82.58z"/><path d="m423.17 341.4 1 19.66a10.56 10.56 0 0 1 3.89-4.47 12.2 12.2 0 0 1 6-1.82q6.09-.31 9.71 3t4 9.55l1.23 22.08-13.64.71-1-18.72a7.6 7.6 0 0 0 -1.41-4.55 4.14 4.14 0 0 0 -3.59-1.36 4.23 4.23 0 0 0 -3.52 1.9 8.12 8.12 0 0 0 -1 5l1 18.25-13.64.72-2.58-49.22z"/><path d="m477.89 376.08 12.51-.66a14 14 0 0 1 -5.31 9.5 19.85 19.85 0 0 1 -11.69 4q-8.36.43-13.9-4.27t-6-12.86q-.42-8.09 4.6-13.32t13.38-5.66q8.16-.42 13.23 4.24c3.38 3.1 5.21 7.27 5.48 12.48l.17 3.21-23.64 1.26a7.31 7.31 0 0 0 2.1 4.28 5.48 5.48 0 0 0 4.09 1.23 6.37 6.37 0 0 0 3.3-1 4 4 0 0 0 1.68-2.43zm-5.89-14.08a5.34 5.34 0 0 0 -3.74 1.57 7 7 0 0 0 -1.73 4.08l11-.58a5.29 5.29 0 0 0 -1.68-3.73 5 5 0 0 0 -3.85-1.34z"/><path d="m511.47 386.12-1.31-25.12-4.35.23-.49-9.43 4.35-.22-.12-2.28q-.33-6.29 2.88-9.67t9.76-3.73c1.69-.09 3-.13 4-.11s2 .06 2.92.15l.52 10c-.76-.05-1.35-.07-1.78-.07h-1.37a3.68 3.68 0 0 0 -2.63 1 3.46 3.46 0 0 0 -.67 2.58l.08 1.47 6.42-.34.49 9.43-6.42.34 1.31 25.07z"/><path d="m548 345.85-13.78.72-.57-11 13.77-.72zm1.93 38.26-13.64.71-1.81-34.5 13.64-.72z"/><path d="m579.65 347.48a7.82 7.82 0 0 1 1.38 0 3.54 3.54 0 0 1 1.05.24l.65 12.51c-.63-.06-1.25-.09-1.88-.1s-1.32 0-2.08 0a8.63 8.63 0 0 0 -6.07 2.39 7.82 7.82 0 0 0 -1.86 6.07l.75 14.31-13.64.71-1.81-34.5 13.5-.71.37 7a11.67 11.67 0 0 1 3.62-5.78 9.94 9.94 0 0 1 6.02-2.14z"/><path d="m605.2 382q-7.89.42-12.77-2.38a11.61 11.61 0 0 1 -5.9-8.37l12.5-.66a3.32 3.32 0 0 0 1.8 2.29 7.11 7.11 0 0 0 3.72.64 6.07 6.07 0 0 0 2.85-.69 1.71 1.71 0 0 0 .92-1.65 1.51 1.51 0 0 0 -.78-1.34 12.51 12.51 0 0 0 -3.56-.71l-6.2-.69c-3.6-.39-6.28-1.36-8.06-2.93a8.88 8.88 0 0 1 -2.9-6.55 10.5 10.5 0 0 1 4.13-9 18.78 18.78 0 0 1 11.35-4q7.35-.39 11.9 2.42a11.66 11.66 0 0 1 5.49 8.27l-11.9.62a3.31 3.31 0 0 0 -1.66-2.23 5.61 5.61 0 0 0 -3.26-.73 4.89 4.89 0 0 0 -2.57.74 1.79 1.79 0 0 0 -.92 1.65 1.51 1.51 0 0 0 .77 1.3 9.48 9.48 0 0 0 3.29.7l6.61.73a13.63 13.63 0 0 1 7.9 3 9.39 9.39 0 0 1 3 6.78 10.17 10.17 0 0 1 -4.13 8.87q-4.4 3.55-11.62 3.92z"/><path d="m645.08 368.93c.71 0 1.37-.1 2-.17a16.1 16.1 0 0 0 1.89-.37l.52 10c-1.67.49-3.1.84-4.27 1.06a28.79 28.79 0 0 1 -3.9.44q-6.62.34-9.76-2.1c-2.1-1.63-3.25-4.35-3.45-8.13l-.77-14.72-4.35.23-.49-9.43 4.35-.22-.45-8.43 13.45-.7.44 8.42 6.82-.36.49 9.43-6.89.36.61 11.57a3.43 3.43 0 0 0 .94 2.53 4 4 0 0 0 2.82.59z"/><path d="m687.47 342.3 12-.63 5.79 20.82h.13l4.18-21.34 13.24-.69-9 35.07-13.58.71-6-19.73h-.23l-4 20.26-13.58.71-12.64-33.93 13.57-.72 6.32 20.79h.2z"/><path d="m750.31 361.8 12.5-.65a14 14 0 0 1 -5.3 9.49 19.88 19.88 0 0 1 -11.69 4q-8.36.45-13.9-4.26t-6-12.87q-.42-8.08 4.6-13.31t13.38-5.67q8.16-.42 13.24 4.24t5.48 12.49l.17 3.21-23.68 1.24a7.38 7.38 0 0 0 2.11 4.28 5.51 5.51 0 0 0 4.08 1.22 6.47 6.47 0 0 0 3.31-1 4 4 0 0 0 1.7-2.41zm-5.9-14a5.39 5.39 0 0 0 -3.74 1.57 7 7 0 0 0 -1.73 4.08l11-.58a5.32 5.32 0 0 0 -1.67-3.73 5.06 5.06 0 0 0 -3.86-1.38z"/><path d="m793.16 372.16a12.68 12.68 0 0 1 -6.16-1.16 9.34 9.34 0 0 1 -4.25-3.84l.24 4.75-13.5.71-2.58-49.21 13.64-.72 1 19.46a9.45 9.45 0 0 1 3.76-4.26 12.43 12.43 0 0 1 6-1.82 13.33 13.33 0 0 1 11.09 4.42q4.33 4.77 4.77 12.86t-3.4 13.28a13.28 13.28 0 0 1 -10.61 5.53zm-5.94-26.31a5 5 0 0 0 -4.07 2.23 9.13 9.13 0 0 0 -1.21 5.69l.09 1.74a9.11 9.11 0 0 0 1.8 5.54 5.36 5.36 0 0 0 8.48-.61 14.08 14.08 0 0 0 -.66-12.64 5 5 0 0 0 -4.43-1.95z"/><path d="m319.4 477.45a13.31 13.31 0 0 1 -11.1-4.45q-4.33-4.77-4.76-12.86t3.39-13.29a13.35 13.35 0 0 1 10.58-5.55 12.34 12.34 0 0 1 6.13 1.19 9.49 9.49 0 0 1 4.19 3.84l-1-19.46 13.64-.72 2.53 49.26-13.51.71-.25-4.75a9.38 9.38 0 0 1 -3.83 4.26 12.57 12.57 0 0 1 -6.01 1.82zm3.15-26.78a5 5 0 0 0 -4.2 2.4 14 14 0 0 0 .65 12.63 5.37 5.37 0 0 0 8.5-.27 9.28 9.28 0 0 0 1.21-5.7l-.09-1.74a9.29 9.29 0 0 0 -1.8-5.54 4.94 4.94 0 0 0 -4.27-1.78z"/><path d="m372.37 462.07 12.5-.65a14 14 0 0 1 -5.3 9.49 19.88 19.88 0 0 1 -11.69 4q-8.37.43-13.91-4.26t-6-12.87q-.42-8.08 4.6-13.31t13.43-5.67q8.16-.42 13.23 4.24c3.39 3.11 5.21 7.27 5.49 12.48l.16 3.21-23.69 1.27a7.37 7.37 0 0 0 2.1 4.29 5.55 5.55 0 0 0 4.09 1.22 6.4 6.4 0 0 0 3.3-1 4 4 0 0 0 1.69-2.44zm-5.9-14a5.39 5.39 0 0 0 -3.74 1.57 7 7 0 0 0 -1.73 4.08l11-.58a5.32 5.32 0 0 0 -1.67-3.73 5.06 5.06 0 0 0 -3.86-1.41z"/><path d="m414.58 471.66-14.78.77-15.05-33.81 13.64-.71 8.27 20.95h.14l6-21.7 13.24-.7z"/><path d="m452.21 457.89 12.5-.66a14 14 0 0 1 -5.3 9.5 19.92 19.92 0 0 1 -11.69 4q-8.36.43-13.9-4.27t-6-12.86q-.44-8.09 4.59-13.32t13.39-5.66q8.15-.44 13.23 4.23t5.48 12.49l.17 3.21-23.68 1.24a7.31 7.31 0 0 0 2.1 4.28 5.47 5.47 0 0 0 4.08 1.23 6.47 6.47 0 0 0 3.31-1 4 4 0 0 0 1.72-2.41zm-5.9-14a5.34 5.34 0 0 0 -3.74 1.57 6.92 6.92 0 0 0 -1.73 4.08l11-.58a5.3 5.3 0 0 0 -1.67-3.74 5.05 5.05 0 0 0 -3.86-1.37z"/><path d="m482.41 418.76 2.59 49.24-13.64.71-2.58-49.21z"/><path d="m508.21 431.35q8.76-.47 14.23 4.15t5.91 12.9q.43 8.3-4.52 13.44t-13.72 5.62q-8.76.45-14.24-4.15t-5.9-12.9q-.44-8.3 4.52-13.45t13.72-5.61zm.5 9.56a4.58 4.58 0 0 0 -4 2.36q-1.26 2.21-1 6.42a11.84 11.84 0 0 0 1.7 6.28 5 5 0 0 0 8.22-.43 15.42 15.42 0 0 0 -.66-12.7 4.59 4.59 0 0 0 -4.26-1.93z"/><path d="m558.85 464.9a12.32 12.32 0 0 1 -6.13-1.18 9.44 9.44 0 0 1 -4.19-3.84l.87 16.65-13.64.71-2.43-46.4 13.51-.71.25 4.75a9.27 9.27 0 0 1 3.83-4.26 12.57 12.57 0 0 1 6-1.82 13.29 13.29 0 0 1 11.09 4.41c2.9 3.18 4.48 7.46 4.77 12.86s-.85 9.82-3.4 13.28a13.28 13.28 0 0 1 -10.53 5.55zm-5.94-26.31a5 5 0 0 0 -4.07 2.23 9.21 9.21 0 0 0 -1.21 5.7l.09 1.73a9.24 9.24 0 0 0 1.8 5.54 5.36 5.36 0 0 0 8.48-.61 14 14 0 0 0 -.66-12.64 5 5 0 0 0 -4.43-1.95z"/><path d="m600.92 450.09 12.51-.65a14 14 0 0 1 -5.31 9.49 19.85 19.85 0 0 1 -11.69 4q-8.35.45-13.9-4.26t-6-12.87q-.43-8.08 4.6-13.31t13.38-5.66q8.16-.43 13.23 4.23t5.48 12.49l.17 3.21-23.64 1.24a7.37 7.37 0 0 0 2.1 4.28 5.52 5.52 0 0 0 4.09 1.22 6.46 6.46 0 0 0 3.3-1 4 4 0 0 0 1.68-2.41zm-5.9-14a5.4 5.4 0 0 0 -3.74 1.57 7 7 0 0 0 -1.73 4.08l11-.58a5.31 5.31 0 0 0 -1.68-3.73 5.06 5.06 0 0 0 -3.87-1.38z"/><path d="m641.77 424.68a10.21 10.21 0 0 1 1.37 0 3.68 3.68 0 0 1 1.05.25l.66 12.5c-.63 0-1.26-.09-1.88-.1s-1.32 0-2.08 0a8.64 8.64 0 0 0 -6.08 2.4 7.9 7.9 0 0 0 -1.86 6.07l.75 14.31-13.64.71-1.81-34.5 13.51-.71.37 7a11.66 11.66 0 0 1 3.62-5.79 10 10 0 0 1 6.02-2.14z"/><path d="m667.31 459.22q-7.89.42-12.76-2.38a11.69 11.69 0 0 1 -5.91-8.38l12.51-.65a3.32 3.32 0 0 0 1.79 2.28 7.13 7.13 0 0 0 3.72.65 6.32 6.32 0 0 0 2.85-.69 1.72 1.72 0 0 0 .92-1.66 1.5 1.5 0 0 0 -.77-1.33 12.47 12.47 0 0 0 -3.56-.72l-6.2-.68q-5.4-.59-8.07-2.93a8.91 8.91 0 0 1 -2.89-6.55 10.48 10.48 0 0 1 4.12-9 18.81 18.81 0 0 1 11.36-4c4.9-.25 8.86.55 11.89 2.43a11.65 11.65 0 0 1 5.5 8.26l-11.91.63a3.26 3.26 0 0 0 -1.66-2.23 5.58 5.58 0 0 0 -3.25-.74 5.15 5.15 0 0 0 -2.58.74 1.83 1.83 0 0 0 -.92 1.66 1.52 1.52 0 0 0 .77 1.3 9.8 9.8 0 0 0 3.29.7l6.61.73a13.6 13.6 0 0 1 7.91 3 9.38 9.38 0 0 1 3 6.78 10.12 10.12 0 0 1 -4.13 8.86q-4.41 3.55-11.63 3.92z"/><path d="m720.56 445.43c.72 0 1.37-.09 2-.17a14.28 14.28 0 0 0 1.89-.37l.53 10c-1.68.49-3.1.84-4.27 1.06a30.9 30.9 0 0 1 -3.9.44q-6.62.34-9.77-2.11t-3.44-8.13l-.77-14.71-4.35.23-.49-9.43 4.34-.23-.44-8.42 13.44-.71.44 8.43 6.83-.36.49 9.43-6.89.36.61 11.57a3.41 3.41 0 0 0 .94 2.53 4 4 0 0 0 2.81.59z"/><path d="m746.59 418.86q8.77-.47 14.24 4.14t5.9 12.9q.43 8.3-4.52 13.45t-13.72 5.65q-8.76.45-14.23-4.15t-5.91-12.9q-.44-8.3 4.53-13.45t13.71-5.64zm.5 9.56a4.54 4.54 0 0 0 -4 2.35 11.91 11.91 0 0 0 -1 6.43c.15 2.81.71 4.9 1.7 6.28a5 5 0 0 0 8.23-.43 12 12 0 0 0 1-6.43 11.84 11.84 0 0 0 -1.7-6.28 4.56 4.56 0 0 0 -4.23-1.92z"/><path d="m327.75 557.48q-8.56.45-14.07-4.19t-5.93-12.87q-.44-8.16 4.56-13.38t13.55-5.67q7.22-.37 12 3.16a14.75 14.75 0 0 1 5.76 10l-12.91.68a5 5 0 0 0 -1.44-3.11 3.8 3.8 0 0 0 -3-1.09 4.3 4.3 0 0 0 -3.73 2.41 11.8 11.8 0 0 0 -1.05 6.29 11.94 11.94 0 0 0 1.66 6.12 4.31 4.31 0 0 0 4 2 3.8 3.8 0 0 0 2.85-1.43 5 5 0 0 0 1.11-3.25l12.9-.67a14.85 14.85 0 0 1 -4.67 10.57q-4.34 4.05-11.59 4.43z"/><path d="m365.31 519.3q8.76-.45 14.23 4.15t5.91 12.9q.44 8.29-4.53 13.45t-13.72 5.61q-8.76.47-14.23-4.15t-5.91-12.9q-.44-8.29 4.53-13.45t13.72-5.61zm.5 9.56a4.57 4.57 0 0 0 -4 2.36 11.85 11.85 0 0 0 -1 6.42c.15 2.81.72 4.91 1.71 6.28a5 5 0 0 0 8.22-.43 15.37 15.37 0 0 0 -.67-12.7 4.56 4.56 0 0 0 -4.26-1.93z"/><path d="m403.3 503.36 2.57 49.22-13.64.71-2.58-49.21z"/><path d="m429.1 516q8.76-.47 14.23 4.15t5.91 12.9q.43 8.28-4.53 13.44t-13.71 5.58q-8.76.45-14.23-4.15t-5.92-12.92q-.44-8.29 4.53-13.45t13.72-5.55zm.5 9.56a4.57 4.57 0 0 0 -4 2.36c-.84 1.47-1.18 3.61-1 6.42a11.92 11.92 0 0 0 1.71 6.28 5 5 0 0 0 8.22-.43 11.89 11.89 0 0 0 1-6.43 12.05 12.05 0 0 0 -1.7-6.28 4.58 4.58 0 0 0 -4.23-1.96z"/><path d="m454.22 515.45 13.5-.71.26 5a10.46 10.46 0 0 1 4-4.47 12.6 12.6 0 0 1 6.11-1.83q6.07-.32 9.71 3t3.95 9.55l1.12 22.01-13.64.71-1-18.72a7.6 7.6 0 0 0 -1.41-4.55 4.16 4.16 0 0 0 -3.6-1.36 4.27 4.27 0 0 0 -3.52 1.9 8.2 8.2 0 0 0 -1 5l1 18.25-13.7.77z"/><path d="m512.2 508.65-13.78.72-.57-11 13.77-.72zm1.93 38.25-13.64.72-1.81-34.5 13.64-.72z"/><path d="m550.64 510.39.48 9.1-14.43 16.44 15.92-.83.51 9.76-32.37 1.7-.46-8.83 14.34-16.73-14.91.78-.51-9.7z"/><path d="m580.92 531.6 12.5-.65a14 14 0 0 1 -5.3 9.5 19.85 19.85 0 0 1 -11.69 4q-8.35.45-13.9-4.26t-6-12.87q-.42-8.09 4.6-13.31t13.39-5.66q8.15-.43 13.23 4.23t5.48 12.49l.17 3.21-23.68 1.24a7.43 7.43 0 0 0 2.11 4.28 5.51 5.51 0 0 0 4.08 1.23 6.47 6.47 0 0 0 3.31-1 4 4 0 0 0 1.7-2.43zm-5.9-14a5.43 5.43 0 0 0 -3.74 1.57 7 7 0 0 0 -1.73 4.08l11-.57a5.34 5.34 0 0 0 -1.67-3.74 5.06 5.06 0 0 0 -3.88-1.38z"/><path d="m654.85 509.29-8.72 30.71-9.43.49-11.94-29.61h-.14l1.58 30.12-12.7.67-2.5-47.67 18.79-1 11.12 28h.09l8.14-29 18.39-1 2.5 47.67-13.51.71-1.52-30.1z"/><path d="m711.93 536.54-12.84.67c-.15-1.11-.25-2-.31-2.66s-.1-1.36-.14-2.08a9.41 9.41 0 0 1 -3.9 4.37 14.2 14.2 0 0 1 -6.51 1.75q-5.75.3-9.17-2.27a9.28 9.28 0 0 1 -3.67-7.32 8.85 8.85 0 0 1 2.86-7.46q3.11-2.77 9.76-3.8l9-1.27-.07-1.27a3.68 3.68 0 0 0 -1.15-2.69 4.56 4.56 0 0 0 -5.65.26 3.84 3.84 0 0 0 -1 2.64l-13 .68a12.82 12.82 0 0 1 4.62-9.87q4.39-3.68 12.08-4.08 8.29-.43 12.71 3.15t4.81 11.15l.48 9.16q.16 3.35.44 5.81c.15 1.65.38 3.36.65 5.13zm-23.29-9.31a2.93 2.93 0 0 0 1 2.2 3.56 3.56 0 0 0 2.55.7 5.47 5.47 0 0 0 3.87-1.68 5.17 5.17 0 0 0 1.33-4l-.06-1.28-4.72.86a6.28 6.28 0 0 0 -3.13 1.1 2.44 2.44 0 0 0 -.84 2.1z"/><path d="m740.72 500a10.36 10.36 0 0 1 1.38 0 3.86 3.86 0 0 1 1 .25l.65 12.5c-.63 0-1.25-.09-1.88-.1s-1.32 0-2.08 0a8.59 8.59 0 0 0 -6.07 2.4 7.81 7.81 0 0 0 -1.86 6.06l.75 14.31-13.65.72-1.8-34.51 13.5-.71.37 7a11.66 11.66 0 0 1 3.62-5.79 10.07 10.07 0 0 1 6.07-2.13z"/><path d="m766.27 534.5q-7.9.4-12.77-2.39a11.61 11.61 0 0 1 -5.9-8.37l12.5-.66a3.32 3.32 0 0 0 1.8 2.29 7.09 7.09 0 0 0 3.72.64 6.2 6.2 0 0 0 2.85-.68 1.74 1.74 0 0 0 .92-1.66 1.49 1.49 0 0 0 -.78-1.33 12 12 0 0 0 -3.56-.72l-6.2-.68q-5.4-.59-8.07-2.93a8.94 8.94 0 0 1 -2.89-6.56 10.53 10.53 0 0 1 4.12-9 18.83 18.83 0 0 1 11.36-4q7.35-.39 11.9 2.43a11.64 11.64 0 0 1 5.49 8.26l-11.9.62a3.3 3.3 0 0 0 -1.66-2.22 5.61 5.61 0 0 0 -3.26-.74 5 5 0 0 0 -2.57.74 1.81 1.81 0 0 0 -.92 1.66 1.5 1.5 0 0 0 .77 1.3 9.73 9.73 0 0 0 3.29.7l6.61.72a13.63 13.63 0 0 1 7.9 3 9.38 9.38 0 0 1 3 6.78 10.13 10.13 0 0 1 -4.12 8.87c-2.9 2.43-6.82 3.67-11.63 3.93z"/><path d="m803.94 531.72-14.51.76-.76-14.48 14.51-.76z"/></g><path d="m1025.27 756.07-41.73-7.36 16.35-49.12 26.82 4.73z" fill="#222"/><path d="m985.69 747.29 38.04 6.71.52-17.84-32.94-5.81z" fill="#222" opacity=".1"/><path d="m989.14 860.13a16.25 16.25 0 0 1 -2.86-.25l-1.6-.28a16.38 16.38 0 0 1 -13.29-19l15.39-87.29 33.86 6-15.39 87.29a16.34 16.34 0 0 1 -16.11 13.53z" fill="url(#e)"/><path d="m990 758 26 4.58-14.7 83.35a12.37 12.37 0 0 1 -14.34 10l-1.6-.28a12.38 12.38 0 0 1 -10-14.34zm-6.49-9.26-16.09 91.22a20.39 20.39 0 0 0 16.58 23.58l1.6.28a20.64 20.64 0 0 0 3.56.31 20.38 20.38 0 0 0 20.05-16.84l16.08-91.22-41.73-7.36z" fill="#222"/><path d="m978.32 747.79-41.73-7.36 16.35-49.12 26.82 4.73z" fill="#222"/><path d="m938.74 739.01 38.04 6.71.52-17.84-32.94-5.81z" fill="#222" opacity=".1"/><path d="m942.19 851.85a16.37 16.37 0 0 1 -2.87-.25l-1.59-.28a16.36 16.36 0 0 1 -13.29-19l15.39-87.29 33.86 6-15.39 87.29a16.35 16.35 0 0 1 -16.11 13.53z" fill="url(#f)"/><path d="m943.08 749.7 26 4.58-14.69 83.34a12.3 12.3 0 0 1 -14.34 10l-1.6-.28a12.39 12.39 0 0 1 -10-14.34l14.7-83.34m-6.49-9.27-16.16 91.26a20.38 20.38 0 0 0 16.5 23.61l1.6.28a20.66 20.66 0 0 0 3.56.32 20.4 20.4 0 0 0 20-16.85l16.08-91.22-41.73-7.36z" fill="#222"/><path d="m931.37 739.51-41.74-7.36 16.35-49.12 26.82 4.73z" fill="#222"/><path d="m891.79 730.74 38.04 6.7.52-17.84-32.95-5.81z" fill="#222" opacity=".1"/><path d="m895.24 843.58a16.38 16.38 0 0 1 -2.87-.26l-1.6-.28a16.37 16.37 0 0 1 -13.28-19l15.39-87.29 33.86 6-15.4 87.25a16.34 16.34 0 0 1 -16.1 13.58z" fill="url(#g)"/><path d="m896.12 741.42 26 4.58-14.69 83.34a12.3 12.3 0 0 1 -14.34 10l-1.6-.28a12.38 12.38 0 0 1 -10-14.34l14.69-83.34m-6.49-9.27-16.08 91.22a20.37 20.37 0 0 0 16.47 23.67l1.6.28a20.66 20.66 0 0 0 3.56.32 20.38 20.38 0 0 0 20-16.85l16.09-91.22-41.74-7.36z" fill="#222"/><path d="m884.42 731.23-41.74-7.36 16.35-49.12 26.82 4.73z" fill="#222"/><path d="m844.84 722.46 38.04 6.7.51-17.83-32.94-5.81z" fill="#222" opacity=".1"/><path d="m848.29 835.3a16.3 16.3 0 0 1 -2.87-.26l-1.6-.28a16.37 16.37 0 0 1 -13.28-19l15.39-87.29 33.85 6-15.39 87.29a16.34 16.34 0 0 1 -16.1 13.54z" fill="url(#h)"/><path d="m849.17 733.14 26 4.58-14.7 83.35a12.35 12.35 0 0 1 -12.16 10.23 13.47 13.47 0 0 1 -2.18-.19l-1.6-.29a12.39 12.39 0 0 1 -10-14.33l14.7-83.35m-6.49-9.27-16.14 91.23a20.36 20.36 0 0 0 16.53 23.6l1.6.28a19.56 19.56 0 0 0 3.56.32 20.38 20.38 0 0 0 20-16.84l16.09-91.23-41.74-7.36z" fill="#222"/><path d="m853.85 581.42 23.52-8.56a23.85 23.85 0 0 1 31.63 26.55l-6.1 34.59-3.22 18.26a23.82 23.82 0 0 1 -15.19 18.21l-93.66 34.75 49.38-111.12a23.87 23.87 0 0 1 13.64-12.68z" fill="#eee" stroke="#222" stroke-miterlimit="10" stroke-width="8"/><path d="m1063.5 618.39-19.17-16.09a23.85 23.85 0 0 0 -38.81 14.12l-6.11 34.63-3.22 18.27a23.83 23.83 0 0 0 8 22.31l76.13 64.68-8.32-121.31a23.81 23.81 0 0 0 -8.5-16.61z" fill="#eee" stroke="#222" stroke-miterlimit="10" stroke-width="8"/><path d="m1124.45 203.76-94 533.22-186.09-32.81 93.64-531.09c8.45-48 31.33-92.69 67.3-129.31 12.22-12.34 25.68-23.58 39.61-31.44a22 22 0 0 1 3.16-1.54c10.76-4.24 25.08-.78 32 7.74 7.76 9 17.41 23.06 26.79 44.64 20.01 45.52 25.81 93.99 17.59 140.59z" fill="#ddd" stroke="#222" stroke-miterlimit="10" stroke-width="8"/><path d="m1117.32 206.16-92.15 522.56-173-30.52 91.73-520.46a248.68 248.68 0 0 1 63.8-127.11c11.49-12.18 24.12-23.29 37.17-31.09a20.63 20.63 0 0 1 3-1.55c10.06-4.24 23.37-1 29.73 7.31 7.15 8.71 16 22.41 24.58 43.44a247.34 247.34 0 0 1 15.14 137.42z" fill="#eee"/><rect fill="#666" height="98.6" rx="19.42" stroke="#222" stroke-miterlimit="10" stroke-width="8" transform="matrix(.17364818 -.98480775 .98480775 .17364818 770.38 1111.35)" width="45.19" x="1024.82" y="47.32"/><rect fill="#666" height="32.54" rx="6.41" stroke="#222" stroke-miterlimit="10" stroke-width="8" transform="matrix(.17364818 -.98480775 .98480775 .17364818 636.43 1111.52)" width="14.91" x="973.09" y="160.26"/><rect fill="#666" height="32.54" rx="6.41" stroke="#222" stroke-miterlimit="10" stroke-width="8" transform="matrix(.17364818 -.98480775 .98480775 .17364818 670.37 1170.3)" width="14.91" x="1025.08" y="169.42"/><rect fill="#666" height="32.54" rx="6.41" stroke="#222" stroke-miterlimit="10" stroke-width="8" transform="matrix(.17364818 -.98480775 .98480775 .17364818 704.03 1228.61)" width="14.91" x="1076.66" y="178.52"/><rect fill="#ededed" height="65.33" rx="17.66" stroke="#222" stroke-miterlimit="10" stroke-width="8" transform="matrix(.98480775 .17364818 -.17364818 .98480775 70.32 -170.62)" width="47.68" x="986.43" y="283.92"/><path d="m844.04 707.2h188.94v14.13h-188.94z" fill="#222" transform="matrix(.98480775 .17364818 -.17364818 .98480775 138.29 -152.12)"/><rect fill="#666" height="32.54" rx="6.41" stroke="#222" stroke-miterlimit="10" stroke-width="8" transform="matrix(.17364818 -.98480775 .98480775 .17364818 672.14 1090.9)" width="14.91" x="978.66" y="128.67"/><rect fill="#666" height="32.54" rx="6.41" stroke="#222" stroke-miterlimit="10" stroke-width="8" transform="matrix(.17364818 -.98480775 .98480775 .17364818 706.07 1149.68)" width="14.91" x="1030.65" y="137.84"/><rect fill="#666" height="32.54" rx="6.41" stroke="#222" stroke-miterlimit="10" stroke-width="8" transform="matrix(.17364818 -.98480775 .98480775 .17364818 739.74 1208)" width="14.91" x="1082.23" y="146.94"/><rect fill="#666" height="32.54" rx="6.41" stroke="#222" stroke-miterlimit="10" stroke-width="8" transform="matrix(.17364818 -.98480775 .98480775 .17364818 600.73 1132.13)" width="14.91" x="967.52" y="191.84"/><rect fill="#666" height="32.54" rx="6.41" stroke="#222" stroke-miterlimit="10" stroke-width="8" transform="matrix(.17364818 -.98480775 .98480775 .17364818 634.66 1190.91)" width="14.91" x="1019.51" y="201.01"/><rect fill="#666" height="32.54" rx="6.41" stroke="#222" stroke-miterlimit="10" stroke-width="8" transform="matrix(.17364818 -.98480775 .98480775 .17364818 668.33 1249.23)" width="14.91" x="1071.09" y="210.1"/><path d="m1025.27 756.07-41.73-7.36 16.35-49.12 26.82 4.73z" fill="#222"/><path d="m985.69 747.29 38.04 6.71.52-17.84-32.94-5.81z" fill="#222" opacity=".1"/><path d="m989.14 860.13a16.25 16.25 0 0 1 -2.86-.25l-1.6-.28a16.38 16.38 0 0 1 -13.29-19l15.39-87.29 33.86 6-15.39 87.29a16.34 16.34 0 0 1 -16.11 13.53z" fill="url(#e)"/><path d="m990 758 26 4.58-14.7 83.35a12.37 12.37 0 0 1 -14.34 10l-1.6-.28a12.38 12.38 0 0 1 -10-14.34zm-6.49-9.26-16.09 91.22a20.39 20.39 0 0 0 16.58 23.58l1.6.28a20.64 20.64 0 0 0 3.56.31 20.38 20.38 0 0 0 20.05-16.84l16.08-91.22-41.73-7.36z" fill="#222"/><path d="m978.32 747.79-41.73-7.36 16.35-49.12 26.82 4.73z" fill="#222"/><path d="m938.74 739.01 38.04 6.71.52-17.84-32.94-5.81z" fill="#222" opacity=".1"/><path d="m942.19 851.85a16.37 16.37 0 0 1 -2.87-.25l-1.59-.28a16.36 16.36 0 0 1 -13.29-19l15.39-87.29 33.86 6-15.39 87.29a16.35 16.35 0 0 1 -16.11 13.53z" fill="url(#f)"/><path d="m943.08 749.7 26 4.58-14.69 83.34a12.3 12.3 0 0 1 -14.34 10l-1.6-.28a12.39 12.39 0 0 1 -10-14.34l14.7-83.34m-6.49-9.27-16.16 91.26a20.38 20.38 0 0 0 16.5 23.61l1.6.28a20.66 20.66 0 0 0 3.56.32 20.4 20.4 0 0 0 20-16.85l16.08-91.22-41.73-7.36z" fill="#222"/><path d="m931.37 739.51-41.74-7.36 16.35-49.12 26.82 4.73z" fill="#222"/><path d="m891.79 730.74 38.04 6.7.52-17.84-32.95-5.81z" fill="#222" opacity=".1"/><path d="m895.24 843.58a16.38 16.38 0 0 1 -2.87-.26l-1.6-.28a16.37 16.37 0 0 1 -13.28-19l15.39-87.29 33.86 6-15.4 87.25a16.34 16.34 0 0 1 -16.1 13.58z" fill="url(#g)"/><path d="m896.12 741.42 26 4.58-14.69 83.34a12.3 12.3 0 0 1 -14.34 10l-1.6-.28a12.38 12.38 0 0 1 -10-14.34l14.69-83.34m-6.49-9.27-16.08 91.22a20.37 20.37 0 0 0 16.47 23.67l1.6.28a20.66 20.66 0 0 0 3.56.32 20.38 20.38 0 0 0 20-16.85l16.09-91.22-41.74-7.36z" fill="#222"/><path d="m884.42 731.23-41.74-7.36 16.35-49.12 26.82 4.73z" fill="#222"/><path d="m844.84 722.46 38.04 6.7.51-17.83-32.94-5.81z" fill="#222" opacity=".1"/><path d="m848.29 835.3a16.3 16.3 0 0 1 -2.87-.26l-1.6-.28a16.37 16.37 0 0 1 -13.28-19l15.39-87.29 33.85 6-15.39 87.29a16.34 16.34 0 0 1 -16.1 13.54z" fill="url(#h)"/><path d="m849.17 733.14 26 4.58-14.7 83.35a12.35 12.35 0 0 1 -12.16 10.23 13.47 13.47 0 0 1 -2.18-.19l-1.6-.29a12.39 12.39 0 0 1 -10-14.33l14.7-83.35m-6.49-9.27-16.14 91.23a20.36 20.36 0 0 0 16.53 23.6l1.6.28a19.56 19.56 0 0 0 3.56.32 20.38 20.38 0 0 0 20-16.84l16.09-91.23-41.74-7.36z" fill="#222"/><path d="m853.85 581.42 23.52-8.56a23.85 23.85 0 0 1 31.63 26.55l-6.1 34.59-3.22 18.26a23.82 23.82 0 0 1 -15.19 18.21l-93.66 34.75 49.38-111.12a23.87 23.87 0 0 1 13.64-12.68z" fill="#eee" stroke="#222" stroke-miterlimit="10" stroke-width="8"/><path d="m1063.5 618.39-19.17-16.09a23.85 23.85 0 0 0 -38.81 14.12l-6.11 34.63-3.22 18.27a23.83 23.83 0 0 0 8 22.31l76.13 64.68-8.32-121.31a23.81 23.81 0 0 0 -8.5-16.61z" fill="#eee" stroke="#222" stroke-miterlimit="10" stroke-width="8"/><path d="m1124.45 203.76-94 533.22-186.09-32.81 93.64-531.09c8.45-48 31.33-92.69 67.3-129.31 12.22-12.34 25.68-23.58 39.61-31.44a22 22 0 0 1 3.16-1.54c10.76-4.24 25.08-.78 32 7.74 7.76 9 17.41 23.06 26.79 44.64 20.01 45.52 25.81 93.99 17.59 140.59z" fill="#ddd" stroke="#222" stroke-miterlimit="10" stroke-width="8"/><path d="m1117.32 206.16-92.15 522.56-173-30.52 91.73-520.46a248.68 248.68 0 0 1 63.8-127.11c11.49-12.18 24.12-23.29 37.17-31.09a20.63 20.63 0 0 1 3-1.55c10.06-4.24 23.37-1 29.73 7.31 7.15 8.71 16 22.41 24.58 43.44a247.34 247.34 0 0 1 15.14 137.42z" fill="#eee"/><rect fill="#666" height="98.6" rx="19.42" stroke="#222" stroke-miterlimit="10" stroke-width="8" transform="matrix(.17364818 -.98480775 .98480775 .17364818 770.38 1111.35)" width="45.19" x="1024.82" y="47.32"/><rect fill="#666" height="32.54" rx="6.41" stroke="#222" stroke-miterlimit="10" stroke-width="8" transform="matrix(.17364818 -.98480775 .98480775 .17364818 636.43 1111.52)" width="14.91" x="973.09" y="160.26"/><rect fill="#666" height="32.54" rx="6.41" stroke="#222" stroke-miterlimit="10" stroke-width="8" transform="matrix(.17364818 -.98480775 .98480775 .17364818 670.37 1170.3)" width="14.91" x="1025.08" y="169.42"/><rect fill="#666" height="32.54" rx="6.41" stroke="#222" stroke-miterlimit="10" stroke-width="8" transform="matrix(.17364818 -.98480775 .98480775 .17364818 704.03 1228.61)" width="14.91" x="1076.66" y="178.52"/><rect fill="#ededed" height="65.33" rx="17.66" stroke="#222" stroke-miterlimit="10" stroke-width="8" transform="matrix(.98480775 .17364818 -.17364818 .98480775 70.32 -170.62)" width="47.68" x="986.43" y="283.92"/><path d="m844.04 707.2h188.94v14.13h-188.94z" fill="#222" transform="matrix(.98480775 .17364818 -.17364818 .98480775 138.29 -152.12)"/><rect fill="#666" height="32.54" rx="6.41" stroke="#222" stroke-miterlimit="10" stroke-width="8" transform="matrix(.17364818 -.98480775 .98480775 .17364818 672.14 1090.9)" width="14.91" x="978.66" y="128.67"/><rect fill="#666" height="32.54" rx="6.41" stroke="#222" stroke-miterlimit="10" stroke-width="8" transform="matrix(.17364818 -.98480775 .98480775 .17364818 706.07 1149.68)" width="14.91" x="1030.65" y="137.84"/><rect fill="#666" height="32.54" rx="6.41" stroke="#222" stroke-miterlimit="10" stroke-width="8" transform="matrix(.17364818 -.98480775 .98480775 .17364818 739.74 1208)" width="14.91" x="1082.23" y="146.94"/><rect fill="#666" height="32.54" rx="6.41" stroke="#222" stroke-miterlimit="10" stroke-width="8" transform="matrix(.17364818 -.98480775 .98480775 .17364818 600.73 1132.13)" width="14.91" x="967.52" y="191.84"/><rect fill="#666" height="32.54" rx="6.41" stroke="#222" stroke-miterlimit="10" stroke-width="8" transform="matrix(.17364818 -.98480775 .98480775 .17364818 634.66 1190.91)" width="14.91" x="1019.51" y="201.01"/><rect fill="#666" height="32.54" rx="6.41" stroke="#222" stroke-miterlimit="10" stroke-width="8" transform="matrix(.17364818 -.98480775 .98480775 .17364818 668.33 1249.23)" width="14.91" x="1071.09" y="210.1"/></svg>